<?xml version="1.0" encoding="iso-8859-1"?>
<!-- Generator: Adobe Illustrator 19.0.0, SVG Export Plug-In . SVG Version: 6.00 Build 0)  -->
<svg version="1.1" id="Capa_1" xmlns="http://www.w3.org/2000/svg" xmlns:xlink="http://www.w3.org/1999/xlink" x="0px" y="0px"
	 viewBox="0 0 486.187 486.187" style="enable-background:new 0 0 486.187 486.187;" xml:space="preserve">
<g>
	<path d="M120.823,486.187c-6.993,0-33.645-4.961-33.645-33.316v-69.546c0-6.975,2.232-13.638,6.455-19.275l40.762-54.389
		l-15.108-50.692c-38.256,23.462-74.82,33.645-76.507,34.11c-17.476,4.803-35.729-5.834-41.458-22.397
		c-3.241-9.369-2.185-32.937,23.149-40.589c0.463-0.14,53.394-15.39,88.786-49.161c6.646-7.948,17.007-11.208,18.325-11.572
		l46.777-12.859c7.364-2.021,15.506-2.519,22.371,0.707c20.809,9.777,72.602,16.254,72.602,16.254
		c9.39,1.5,17.719,6.819,22.856,14.592L350.375,270c9.92,14.996,6.49,34.726-7.804,44.919c-5.839,4.162-29.007,15.414-48.227-8.657
		l-46.661-70.557l-7.561-1.207l18.365,61.637c0.99,2.541,17.062,39.266,27.74,63.566l43.646,29.124
		c15.012,8.528,22.795,24.452,17.587,39.746c-4.612,13.496-21.932,29.579-46.494,19.355l-60.809-28.235
		c-6.178-2.868-11.254-7.435-14.673-13.218l-28.714-48.56c-3.963-6.227-10.62-6.042-12.573-3.586l-29.73,39.67v59.461
		C154.467,471.504,139.375,486.187,120.823,486.187z M135.173,239.821l20.537,68.921c0.935,3.142,0.329,6.537-1.636,9.158
		l-43.883,58.556c-1.52,2.031-2.323,4.405-2.323,6.87v69.546c0,6.021,4.233,11.208,10.067,12.345
		c8.394,1.596,15.845-4.243,15.845-11.758v-62.905c0-2.238,0.727-4.414,2.066-6.203l34.332-45.812
		c13.384-12.555,36.962-4.511,44.398,8.844l28.714,48.56c1.279,2.157,3.208,3.884,5.577,4.981l60.824,28.239
		c7.932,4.315,16.173-1.363,18.189-7.268c1.843-5.419-1.123-11.319-8.88-15.45l-46.767-31.205c-1.642-1.096-2.935-2.637-3.728-4.445
		c-29.057-66.112-29.609-67.966-29.846-68.754L215.6,224.643c-2.37-10.738,7.083-14.03,11.546-13.168l28.291,4.515
		c2.858,0.455,5.399,2.092,6.995,4.506l49.167,74.35c3.879,5.864,12.98,7.501,18.961,3.222c5.172-3.687,6.298-11.001,2.56-16.653
		l-54.192-81.951c-1.954-2.955-5.182-4.986-8.854-5.577c0,0-50.005-5.846-76.093-17.123c-3.153-1.363-6.778-1.242-10.136-0.312
		l-46.772,12.859c-5.408,1.459-8.834,5.92-9.112,6.188c-39.114,37.594-95.561,53.784-97.928,54.52
		c-9.35,2.908-9.749,11.839-8.88,14.758c1.88,6.314,9.263,10.244,16.153,8.35c1.728-0.475,42.537-12.234,82.104-38.883
		C126.985,229.142,134.339,235.81,135.173,239.821z"/>
	<path d="M133.39,150.414c-30.301,0-54.949-23.867-54.949-53.197c0-29.336,24.649-53.202,54.949-53.202
		c30.301,0,54.949,23.867,54.949,53.202C188.339,126.547,163.69,150.414,133.39,150.414z M133.39,64.703
		c-18.891,0-34.261,14.588-34.261,32.513s15.37,32.508,34.261,32.508c18.891,0,34.261-14.583,34.261-32.508
		S152.281,64.703,133.39,64.703z"/>
	<path d="M389.161,187.231c-53.495,0-97.019-41.994-97.019-93.616C292.142,41.994,335.666,0,389.161,0s97.019,41.994,97.019,93.615
		C486.18,145.236,442.656,187.231,389.161,187.231z M389.161,20.689c-42.09,0-76.33,32.715-76.33,72.926
		c0,40.212,34.24,72.927,76.33,72.927c42.089,0,76.33-32.715,76.33-72.927C465.492,53.404,431.251,20.689,389.161,20.689z"/>
	<polygon points="426.867,103.959 378.817,103.959 378.817,41.12 399.506,41.12 399.506,83.27 426.867,83.27 	"/>
</g>
<g>
</g>
<g>
</g>
<g>
</g>
<g>
</g>
<g>
</g>
<g>
</g>
<g>
</g>
<g>
</g>
<g>
</g>
<g>
</g>
<g>
</g>
<g>
</g>
<g>
</g>
<g>
</g>
<g>
</g>
</svg>
